<svg width="196" height="30" viewBox="0 0 196 30" fill="none" xmlns="http://www.w3.org/2000/svg">
<g clip-path="url(#clip0_671_688)">
<mask id="path-1-inside-1_671_688" fill="white">
<path fill-rule="evenodd" clip-rule="evenodd" d="M16.9001 21.5115C17.4563 22.1644 17.7344 22.8416 17.7344 23.5429C17.7344 24.2201 17.4684 24.8005 16.9364 25.2842C16.4285 25.7678 15.7393 26.0097 14.8686 26.0097C13.5627 26.0097 12.2689 25.4655 10.9871 24.3773C9.70541 23.289 8.58086 21.7654 7.61351 19.8065H2.97022V28.295C4.05849 28.7062 5.836 29.0931 8.30275 29.4559C10.7695 29.8186 12.8977 30 14.6873 30C16.1625 30 17.7949 29.5284 19.5845 28.5852C21.3741 27.6179 22.8856 26.445 24.1189 25.0665C25.3765 23.6638 26.0053 22.3579 26.0053 21.1487C26.0053 19.9395 25.6304 18.8392 24.8807 17.8476C24.7485 17.6727 24.6109 17.5019 24.4681 17.3352H26.64C27.8921 17.3352 28.9072 16.3201 28.9072 15.068C28.9072 13.8158 27.8921 12.8008 26.64 12.8008H18.1617C18.0805 12.7542 17.9986 12.7073 17.9158 12.6602C16.4406 11.8138 15.2677 11.1125 14.3971 10.5562C13.5506 9.97582 12.8372 9.34704 12.2568 8.66989C11.7006 7.96856 11.4225 7.23096 11.4225 6.45707C11.4225 5.73156 11.628 5.13906 12.0391 4.67956C12.4503 4.22007 13.0186 3.99033 13.7441 3.99033C14.9533 3.99033 16.1141 4.54655 17.2266 5.65901C18.3632 6.74728 19.3789 8.25877 20.2737 10.1935H24.917V1.70496C23.8529 1.29383 22.1722 0.906894 19.8747 0.544137C17.6014 0.181379 15.6063 0 13.8892 0C12.4624 0 10.9025 0.483676 9.20964 1.45103C7.51678 2.3942 6.07784 3.56711 4.89283 4.96977C3.73201 6.34825 3.1516 7.64208 3.1516 8.85127C3.1516 10.0846 3.53854 11.2092 4.31242 12.2249C4.46212 12.4214 4.61769 12.6133 4.77915 12.8008H2.26723C1.01507 12.8008 0 13.8158 0 15.068C0 16.3201 1.01508 17.3352 2.26723 17.3352H10.9797C11.1248 17.4204 11.2724 17.5065 11.4225 17.5937C12.8735 18.4401 14.0101 19.1415 14.8324 19.6977C15.6546 20.2539 16.3439 20.8585 16.9001 21.5115Z"/>
</mask>
<path fill-rule="evenodd" clip-rule="evenodd" d="M16.9001 21.5115C17.4563 22.1644 17.7344 22.8416 17.7344 23.5429C17.7344 24.2201 17.4684 24.8005 16.9364 25.2842C16.4285 25.7678 15.7393 26.0097 14.8686 26.0097C13.5627 26.0097 12.2689 25.4655 10.9871 24.3773C9.70541 23.289 8.58086 21.7654 7.61351 19.8065H2.97022V28.295C4.05849 28.7062 5.836 29.0931 8.30275 29.4559C10.7695 29.8186 12.8977 30 14.6873 30C16.1625 30 17.7949 29.5284 19.5845 28.5852C21.3741 27.6179 22.8856 26.445 24.1189 25.0665C25.3765 23.6638 26.0053 22.3579 26.0053 21.1487C26.0053 19.9395 25.6304 18.8392 24.8807 17.8476C24.7485 17.6727 24.6109 17.5019 24.4681 17.3352H26.64C27.8921 17.3352 28.9072 16.3201 28.9072 15.068C28.9072 13.8158 27.8921 12.8008 26.64 12.8008H18.1617C18.0805 12.7542 17.9986 12.7073 17.9158 12.6602C16.4406 11.8138 15.2677 11.1125 14.3971 10.5562C13.5506 9.97582 12.8372 9.34704 12.2568 8.66989C11.7006 7.96856 11.4225 7.23096 11.4225 6.45707C11.4225 5.73156 11.628 5.13906 12.0391 4.67956C12.4503 4.22007 13.0186 3.99033 13.7441 3.99033C14.9533 3.99033 16.1141 4.54655 17.2266 5.65901C18.3632 6.74728 19.3789 8.25877 20.2737 10.1935H24.917V1.70496C23.8529 1.29383 22.1722 0.906894 19.8747 0.544137C17.6014 0.181379 15.6063 0 13.8892 0C12.4624 0 10.9025 0.483676 9.20964 1.45103C7.51678 2.3942 6.07784 3.56711 4.89283 4.96977C3.73201 6.34825 3.1516 7.64208 3.1516 8.85127C3.1516 10.0846 3.53854 11.2092 4.31242 12.2249C4.46212 12.4214 4.61769 12.6133 4.77915 12.8008H2.26723C1.01507 12.8008 0 13.8158 0 15.068C0 16.3201 1.01508 17.3352 2.26723 17.3352H10.9797C11.1248 17.4204 11.2724 17.5065 11.4225 17.5937C12.8735 18.4401 14.0101 19.1415 14.8324 19.6977C15.6546 20.2539 16.3439 20.8585 16.9001 21.5115Z" fill="white"/>
<path d="M16.9001 21.5115L17.6613 20.863L17.6613 20.863L16.9001 21.5115ZM16.9364 25.2842L16.2637 24.5442L16.2551 24.552L16.2467 24.56L16.9364 25.2842ZM10.9871 24.3773L10.3399 25.1396L10.3399 25.1396L10.9871 24.3773ZM7.61351 19.8065L8.51014 19.3637L8.23497 18.8065H7.61351V19.8065ZM2.97022 19.8065V18.8065H1.97022V19.8065H2.97022ZM2.97022 28.295H1.97022V28.9862L2.61682 29.2305L2.97022 28.295ZM8.30275 29.4559L8.15725 30.4452L8.15726 30.4452L8.30275 29.4559ZM19.5845 28.5852L20.0508 29.47L20.06 29.465L19.5845 28.5852ZM24.1189 25.0665L23.3744 24.399L23.3737 24.3997L24.1189 25.0665ZM24.8807 17.8476L24.0831 18.4507L24.0831 18.4507L24.8807 17.8476ZM24.4681 17.3352V16.3352H22.2943L23.7087 17.9859L24.4681 17.3352ZM18.1617 12.8008L17.6643 13.6682L17.8954 13.8008H18.1617V12.8008ZM17.9158 12.6602L17.4181 13.5276L17.421 13.5292L17.9158 12.6602ZM14.3971 10.5562L13.8315 11.381L13.845 11.3902L13.8587 11.3989L14.3971 10.5562ZM12.2568 8.66989L11.4733 9.29128L11.4851 9.30622L11.4975 9.32068L12.2568 8.66989ZM12.0391 4.67956L11.2939 4.01277L11.2939 4.01277L12.0391 4.67956ZM17.2266 5.65901L16.5195 6.36612L16.5271 6.3738L16.535 6.38132L17.2266 5.65901ZM20.2737 10.1935L19.3661 10.6132L19.6345 11.1935H20.2737V10.1935ZM24.917 10.1935V11.1935H25.917V10.1935H24.917ZM24.917 1.70496H25.917V1.01928L25.2774 0.772159L24.917 1.70496ZM19.8747 0.544137L19.7171 1.53164L19.7187 1.5319L19.8747 0.544137ZM9.20964 1.45103L9.69637 2.32465L9.70578 2.31927L9.20964 1.45103ZM4.89283 4.96977L4.12895 4.32442L4.12792 4.32564L4.89283 4.96977ZM4.31242 12.2249L5.10786 11.6189L5.10786 11.6189L4.31242 12.2249ZM4.77915 12.8008V13.8008H6.96049L5.53679 12.1481L4.77915 12.8008ZM10.9797 17.3352L11.4858 16.4727L11.2515 16.3352H10.9797V17.3352ZM11.4225 17.5937L11.9263 16.7299L11.9249 16.7291L11.4225 17.5937ZM14.8324 19.6977L15.3927 18.8694L15.3927 18.8694L14.8324 19.6977ZM18.7344 23.5429C18.7344 22.5541 18.336 21.655 17.6613 20.863L16.1388 22.16C16.5767 22.6739 16.7344 23.1291 16.7344 23.5429H18.7344ZM17.609 26.0241C18.335 25.3641 18.7344 24.5209 18.7344 23.5429H16.7344C16.7344 23.9193 16.6018 24.2369 16.2637 24.5442L17.609 26.0241ZM14.8686 27.0097C15.9309 27.0097 16.8899 26.7094 17.626 26.0083L16.2467 24.56C15.9671 24.8263 15.5476 25.0097 14.8686 25.0097V27.0097ZM10.3399 25.1396C11.7493 26.3362 13.2642 27.0097 14.8686 27.0097V25.0097C13.8612 25.0097 12.7884 24.5948 11.6344 23.615L10.3399 25.1396ZM6.71688 20.2493C7.72739 22.2956 8.92797 23.9407 10.3399 25.1396L11.6344 23.615C10.4828 22.6373 9.43434 21.2352 8.51014 19.3637L6.71688 20.2493ZM2.97022 20.8065H7.61351V18.8065H2.97022V20.8065ZM3.97022 28.295V19.8065H1.97022V28.295H3.97022ZM8.44824 28.4665C5.99098 28.1051 4.30443 27.7301 3.32362 27.3596L2.61682 29.2305C3.81255 29.6822 5.68103 30.0811 8.15725 30.4452L8.44824 28.4665ZM14.6873 29C12.9611 29 10.884 28.8247 8.44824 28.4665L8.15726 30.4452C10.655 30.8125 12.8342 31 14.6873 31V29ZM19.1182 27.7006C17.4217 28.5947 15.951 29 14.6873 29V31C16.374 31 18.1681 30.4621 20.0507 29.4699L19.1182 27.7006ZM23.3737 24.3997C22.2246 25.684 20.8072 26.7876 19.109 27.7055L20.06 29.465C21.941 28.4482 23.5466 27.2059 24.8642 25.7333L23.3737 24.3997ZM25.0053 21.1487C25.0053 22.0057 24.5554 23.0817 23.3744 24.399L24.8635 25.7341C26.1977 24.246 27.0053 22.7101 27.0053 21.1487H25.0053ZM24.0831 18.4507C24.7054 19.2739 25.0053 20.1637 25.0053 21.1487H27.0053C27.0053 19.7154 26.5554 18.4045 25.6784 17.2445L24.0831 18.4507ZM23.7087 17.9859C23.8383 18.1371 23.9631 18.2921 24.0831 18.4507L25.6784 17.2445C25.5338 17.0533 25.3835 16.8666 25.2274 16.6845L23.7087 17.9859ZM26.64 16.3352H24.4681V18.3352H26.64V16.3352ZM27.9072 15.068C27.9072 15.7679 27.3398 16.3352 26.64 16.3352V18.3352C28.4444 18.3352 29.9072 16.8724 29.9072 15.068H27.9072ZM26.64 13.8008C27.3398 13.8008 27.9072 14.3681 27.9072 15.068H29.9072C29.9072 13.2635 28.4444 11.8008 26.64 11.8008V13.8008ZM18.1617 13.8008H26.64V11.8008H18.1617V13.8008ZM17.421 13.5292C17.5029 13.5758 17.584 13.6222 17.6643 13.6682L18.6592 11.9333C18.5771 11.8862 18.4942 11.8388 18.4106 11.7912L17.421 13.5292ZM13.8587 11.3989C14.7484 11.9674 15.9367 12.6776 17.4181 13.5276L18.4135 11.7929C16.9445 10.95 15.787 10.2575 14.9355 9.71353L13.8587 11.3989ZM11.4975 9.32068C12.1424 10.0731 12.9238 10.7585 13.8315 11.381L14.9626 9.7315C14.1775 9.19313 13.532 8.621 13.0161 8.0191L11.4975 9.32068ZM10.4225 6.45707C10.4225 7.49101 10.7999 8.44219 11.4733 9.29128L13.0403 8.0485C12.6013 7.49494 12.4225 6.9709 12.4225 6.45707H10.4225ZM11.2939 4.01277C10.6904 4.68725 10.4225 5.53157 10.4225 6.45707H12.4225C12.4225 5.93155 12.5656 5.59086 12.7844 5.34636L11.2939 4.01277ZM13.7441 2.99033C12.7892 2.99033 11.9286 3.30338 11.2939 4.01277L12.7844 5.34636C12.9719 5.13677 13.248 4.99033 13.7441 4.99033V2.99033ZM17.9337 4.9519C16.6925 3.71075 15.2915 2.99033 13.7441 2.99033V4.99033C14.6151 4.99033 15.5357 5.38236 16.5195 6.36612L17.9337 4.9519ZM21.1814 9.77369C20.2515 7.76324 19.1709 6.13614 17.9181 4.9367L16.535 6.38132C17.5555 7.35842 18.5063 8.75429 19.3661 10.6132L21.1814 9.77369ZM24.917 9.19347H20.2737V11.1935H24.917V9.19347ZM23.917 1.70496V10.1935H25.917V1.70496H23.917ZM19.7187 1.5319C22.0027 1.89253 23.5963 2.26671 24.5566 2.63776L25.2774 0.772159C24.1096 0.320961 22.3416 -0.0787378 20.0307 -0.443626L19.7187 1.5319ZM13.8892 1C15.5392 1 17.4796 1.17459 19.7171 1.53164L20.0323 -0.443369C17.7232 -0.811834 15.6733 -1 13.8892 -1V1ZM9.70578 2.31927C11.3006 1.40796 12.6887 1 13.8892 1V-1C12.236 -1 10.5044 -0.440606 8.7135 0.582785L9.70578 2.31927ZM5.65672 5.61512C6.75962 4.30965 8.10299 3.21232 9.69634 2.3246L8.72294 0.57746C6.93056 1.57607 5.39607 2.82457 4.12895 4.32442L5.65672 5.61512ZM4.1516 8.85127C4.1516 7.96952 4.57677 6.89756 5.65774 5.61391L4.12792 4.32564C2.88725 5.79893 2.1516 7.31464 2.1516 8.85127H4.1516ZM5.10786 11.6189C4.46164 10.7707 4.1516 9.85751 4.1516 8.85127H2.1516C2.1516 10.3118 2.61545 11.6477 3.51699 12.831L5.10786 11.6189ZM5.53679 12.1481C5.38837 11.9758 5.2454 11.7994 5.10786 11.6189L3.51699 12.831C3.67883 13.0434 3.84701 13.2509 4.02151 13.4534L5.53679 12.1481ZM2.26723 13.8008H4.77915V11.8008H2.26723V13.8008ZM1 15.068C1 14.3681 1.56736 13.8008 2.26723 13.8008V11.8008C0.462789 11.8008 -1 13.2635 -1 15.068H1ZM2.26723 16.3352C1.56736 16.3352 1 15.7679 1 15.068H-1C-1 16.8724 0.462792 18.3352 2.26723 18.3352V16.3352ZM10.9797 16.3352H2.26723V18.3352H10.9797V16.3352ZM11.9249 16.7291C11.776 16.6426 11.6297 16.5571 11.4858 16.4727L10.4737 18.1977C10.62 18.2836 10.7688 18.3705 10.92 18.4583L11.9249 16.7291ZM15.3927 18.8694C14.5438 18.2952 13.3854 17.5811 11.9263 16.7299L10.9186 18.4575C12.3616 19.2992 13.4765 19.9878 14.2721 20.526L15.3927 18.8694ZM17.6613 20.863C17.0382 20.1315 16.2783 19.4685 15.3927 18.8694L14.2721 20.526C15.031 21.0394 15.6495 21.5855 16.1388 22.16L17.6613 20.863Z" fill="black" mask="url(#path-1-inside-1_671_688)"/>
<path d="M37.7045 10.875V9.36364H46.7102V10.875H43.0795V21H41.3295V10.875H37.7045ZM50.2628 15.8182V21H48.5639V9.36364H50.2401V13.6932H50.348C50.5526 13.2235 50.8651 12.8504 51.2855 12.5739C51.706 12.2973 52.2552 12.1591 52.9332 12.1591C53.5317 12.1591 54.0545 12.2822 54.5014 12.5284C54.9522 12.7746 55.3007 13.142 55.5469 13.6307C55.7969 14.1155 55.9219 14.7216 55.9219 15.4489V21H54.223V15.6534C54.223 15.0133 54.0582 14.517 53.7287 14.1648C53.3991 13.8087 52.9408 13.6307 52.3537 13.6307C51.9522 13.6307 51.5923 13.7159 51.2741 13.8864C50.9598 14.0568 50.7116 14.3068 50.5298 14.6364C50.3518 14.9621 50.2628 15.3561 50.2628 15.8182ZM61.9503 21.1761C61.0904 21.1761 60.3499 20.9924 59.7287 20.625C59.1113 20.2538 58.634 19.733 58.2969 19.0625C57.9635 18.3883 57.7969 17.5985 57.7969 16.6932C57.7969 15.7992 57.9635 15.0114 58.2969 14.3295C58.634 13.6477 59.1037 13.1155 59.706 12.733C60.312 12.3504 61.0204 12.1591 61.831 12.1591C62.3234 12.1591 62.8007 12.2405 63.2628 12.4034C63.7249 12.5663 64.1397 12.822 64.5071 13.1705C64.8745 13.5189 65.1643 13.9716 65.3764 14.5284C65.5885 15.0814 65.6946 15.7538 65.6946 16.5455V17.1477H58.7571V15.875H64.0298C64.0298 15.428 63.9389 15.0322 63.7571 14.6875C63.5753 14.339 63.3196 14.0644 62.9901 13.8636C62.6643 13.6629 62.2817 13.5625 61.8423 13.5625C61.3651 13.5625 60.9484 13.6799 60.5923 13.9148C60.2401 14.1458 59.9673 14.4489 59.7741 14.8239C59.5848 15.1951 59.4901 15.5985 59.4901 16.0341V17.0284C59.4901 17.6117 59.5923 18.108 59.7969 18.517C60.0052 18.9261 60.295 19.2386 60.6662 19.4545C61.0374 19.6667 61.4711 19.7727 61.9673 19.7727C62.2893 19.7727 62.5829 19.7273 62.848 19.6364C63.1132 19.5417 63.3423 19.4015 63.5355 19.2159C63.7287 19.0303 63.8764 18.8011 63.9787 18.5284L65.5866 18.8182C65.4579 19.2917 65.2268 19.7064 64.8935 20.0625C64.5639 20.4148 64.1491 20.6894 63.6491 20.8864C63.1529 21.0795 62.5866 21.1761 61.9503 21.1761ZM78.2969 12.4205C78.2363 11.8826 77.9863 11.4659 77.5469 11.1705C77.1075 10.8712 76.5545 10.7216 75.8878 10.7216C75.4105 10.7216 74.9976 10.7973 74.6491 10.9489C74.3007 11.0966 74.0298 11.3011 73.8366 11.5625C73.6473 11.8201 73.5526 12.1136 73.5526 12.4432C73.5526 12.7197 73.617 12.9583 73.7457 13.1591C73.8783 13.3598 74.0507 13.5284 74.2628 13.6648C74.4787 13.7973 74.7098 13.9091 74.956 14C75.2022 14.0871 75.4389 14.1591 75.6662 14.2159L76.8026 14.5114C77.1738 14.6023 77.5545 14.7254 77.9446 14.8807C78.3348 15.036 78.6965 15.2405 79.0298 15.4943C79.3632 15.7481 79.6321 16.0625 79.8366 16.4375C80.045 16.8125 80.1491 17.2614 80.1491 17.7841C80.1491 18.4432 79.9787 19.0284 79.6378 19.5398C79.3007 20.0511 78.8101 20.4545 78.1662 20.75C77.526 21.0455 76.7514 21.1932 75.8423 21.1932C74.9711 21.1932 74.2173 21.0549 73.581 20.7784C72.9446 20.5019 72.4465 20.1098 72.0866 19.6023C71.7268 19.0909 71.5279 18.4848 71.4901 17.7841H73.2514C73.2855 18.2045 73.4219 18.5549 73.6605 18.8352C73.9029 19.1117 74.2116 19.3182 74.5866 19.4545C74.9654 19.5871 75.3802 19.6534 75.831 19.6534C76.3272 19.6534 76.7685 19.5758 77.1548 19.4205C77.545 19.2614 77.8518 19.0417 78.0753 18.7614C78.2988 18.4773 78.4105 18.1458 78.4105 17.767C78.4105 17.4223 78.312 17.1402 78.1151 16.9205C77.9219 16.7008 77.6586 16.5189 77.3253 16.375C76.9957 16.2311 76.6226 16.1042 76.206 15.9943L74.831 15.6193C73.8991 15.3655 73.1605 14.9924 72.6151 14.5C72.0734 14.0076 71.8026 13.3561 71.8026 12.5455C71.8026 11.875 71.9844 11.2898 72.348 10.7898C72.7116 10.2898 73.2041 9.90151 73.8253 9.625C74.4465 9.3447 75.1473 9.20455 75.9276 9.20455C76.7154 9.20455 77.4105 9.3428 78.0128 9.61932C78.6188 9.89583 79.0961 10.2765 79.4446 10.7614C79.7931 11.2424 79.9749 11.7955 79.9901 12.4205H78.2969ZM85.7869 21.1761C84.9688 21.1761 84.2547 20.9886 83.6449 20.6136C83.035 20.2386 82.5616 19.714 82.2244 19.0398C81.8873 18.3655 81.7188 17.5777 81.7188 16.6761C81.7188 15.7708 81.8873 14.9792 82.2244 14.3011C82.5616 13.6231 83.035 13.0966 83.6449 12.7216C84.2547 12.3466 84.9688 12.1591 85.7869 12.1591C86.6051 12.1591 87.3191 12.3466 87.929 12.7216C88.5388 13.0966 89.0123 13.6231 89.3494 14.3011C89.6866 14.9792 89.8551 15.7708 89.8551 16.6761C89.8551 17.5777 89.6866 18.3655 89.3494 19.0398C89.0123 19.714 88.5388 20.2386 87.929 20.6136C87.3191 20.9886 86.6051 21.1761 85.7869 21.1761ZM85.7926 19.75C86.3229 19.75 86.7623 19.6098 87.1108 19.3295C87.4593 19.0492 87.7169 18.6761 87.8835 18.2102C88.054 17.7443 88.1392 17.2311 88.1392 16.6705C88.1392 16.1136 88.054 15.6023 87.8835 15.1364C87.7169 14.6667 87.4593 14.2898 87.1108 14.0057C86.7623 13.7216 86.3229 13.5795 85.7926 13.5795C85.2585 13.5795 84.8153 13.7216 84.4631 14.0057C84.1146 14.2898 83.8551 14.6667 83.6847 15.1364C83.518 15.6023 83.4347 16.1136 83.4347 16.6705C83.4347 17.2311 83.518 17.7443 83.6847 18.2102C83.8551 18.6761 84.1146 19.0492 84.4631 19.3295C84.8153 19.6098 85.2585 19.75 85.7926 19.75ZM95.4276 21.1761C94.5829 21.1761 93.8556 20.9848 93.2457 20.6023C92.6397 20.2159 92.1738 19.6837 91.848 19.0057C91.5223 18.3277 91.3594 17.5511 91.3594 16.6761C91.3594 15.7898 91.526 15.0076 91.8594 14.3295C92.1927 13.6477 92.6624 13.1155 93.2685 12.733C93.8745 12.3504 94.5885 12.1591 95.4105 12.1591C96.0734 12.1591 96.6643 12.2822 97.1832 12.5284C97.7022 12.7708 98.1207 13.1117 98.4389 13.5511C98.7609 13.9905 98.9522 14.5038 99.0128 15.0909H97.3594C97.2685 14.6818 97.0601 14.3295 96.7344 14.0341C96.4124 13.7386 95.9806 13.5909 95.4389 13.5909C94.9654 13.5909 94.5507 13.7159 94.1946 13.9659C93.8423 14.2121 93.5677 14.5644 93.3707 15.0227C93.1738 15.4773 93.0753 16.0152 93.0753 16.6364C93.0753 17.2727 93.1719 17.822 93.3651 18.2841C93.5582 18.7462 93.831 19.1042 94.1832 19.358C94.5393 19.6117 94.9579 19.7386 95.4389 19.7386C95.7609 19.7386 96.0526 19.6799 96.3139 19.5625C96.5791 19.4413 96.8007 19.2689 96.9787 19.0455C97.1605 18.822 97.2874 18.553 97.3594 18.2386H99.0128C98.9522 18.803 98.7685 19.3068 98.4616 19.75C98.1548 20.1932 97.7438 20.5417 97.2287 20.7955C96.7173 21.0492 96.117 21.1761 95.4276 21.1761ZM100.83 21V12.2727H102.528V21H100.83ZM101.688 10.9261C101.392 10.9261 101.138 10.8277 100.926 10.6307C100.718 10.4299 100.614 10.1913 100.614 9.91477C100.614 9.63447 100.718 9.39583 100.926 9.19886C101.138 8.99811 101.392 8.89773 101.688 8.89773C101.983 8.89773 102.235 8.99811 102.443 9.19886C102.655 9.39583 102.761 9.63447 102.761 9.91477C102.761 10.1913 102.655 10.4299 102.443 10.6307C102.235 10.8277 101.983 10.9261 101.688 10.9261ZM107.354 21.1932C106.801 21.1932 106.301 21.0909 105.854 20.8864C105.407 20.678 105.053 20.3769 104.791 19.983C104.534 19.589 104.405 19.1061 104.405 18.5341C104.405 18.0417 104.5 17.6364 104.689 17.3182C104.878 17 105.134 16.7481 105.456 16.5625C105.778 16.3769 106.138 16.2367 106.536 16.142C106.933 16.0473 107.339 15.9754 107.751 15.9261C108.274 15.8655 108.698 15.8163 109.024 15.7784C109.35 15.7367 109.587 15.6705 109.734 15.5795C109.882 15.4886 109.956 15.3409 109.956 15.1364V15.0966C109.956 14.6004 109.816 14.2159 109.536 13.9432C109.259 13.6705 108.846 13.5341 108.297 13.5341C107.725 13.5341 107.274 13.661 106.945 13.9148C106.619 14.1648 106.393 14.4432 106.268 14.75L104.672 14.3864C104.861 13.8561 105.138 13.428 105.501 13.1023C105.869 12.7727 106.291 12.5341 106.768 12.3864C107.246 12.2348 107.748 12.1591 108.274 12.1591C108.623 12.1591 108.992 12.2008 109.382 12.2841C109.776 12.3636 110.143 12.5114 110.484 12.7273C110.829 12.9432 111.111 13.2519 111.331 13.6534C111.551 14.0511 111.661 14.5682 111.661 15.2045V21H110.001V19.8068H109.933C109.823 20.0265 109.659 20.2424 109.439 20.4545C109.219 20.6667 108.937 20.8428 108.592 20.983C108.248 21.1231 107.835 21.1932 107.354 21.1932ZM107.723 19.8295C108.193 19.8295 108.594 19.7367 108.928 19.5511C109.265 19.3655 109.52 19.1231 109.695 18.8239C109.873 18.5208 109.962 18.197 109.962 17.8523V16.7273C109.901 16.7879 109.784 16.8447 109.609 16.8977C109.439 16.947 109.244 16.9905 109.024 17.0284C108.804 17.0625 108.59 17.0947 108.382 17.125C108.174 17.1515 108 17.1742 107.859 17.1932C107.53 17.2348 107.229 17.3049 106.956 17.4034C106.687 17.5019 106.471 17.6439 106.308 17.8295C106.149 18.0114 106.07 18.2538 106.07 18.5568C106.07 18.9773 106.225 19.2955 106.536 19.5114C106.846 19.7235 107.242 19.8295 107.723 19.8295ZM115.622 9.36364V21H113.923V9.36364H115.622ZM122.278 21V9.36364H129.574V10.875H124.034V14.4205H129.193V15.9261H124.034V19.4886H129.642V21H122.278ZM133.124 12.2727L135.05 15.6705L136.993 12.2727H138.851L136.129 16.6364L138.874 21H137.016L135.05 17.7386L133.089 21H131.226L133.942 16.6364L131.26 12.2727H133.124ZM143.928 21.1761C143.083 21.1761 142.356 20.9848 141.746 20.6023C141.14 20.2159 140.674 19.6837 140.348 19.0057C140.022 18.3277 139.859 17.5511 139.859 16.6761C139.859 15.7898 140.026 15.0076 140.359 14.3295C140.693 13.6477 141.162 13.1155 141.768 12.733C142.375 12.3504 143.089 12.1591 143.911 12.1591C144.573 12.1591 145.164 12.2822 145.683 12.5284C146.202 12.7708 146.621 13.1117 146.939 13.5511C147.261 13.9905 147.452 14.5038 147.513 15.0909H145.859C145.768 14.6818 145.56 14.3295 145.234 14.0341C144.912 13.7386 144.481 13.5909 143.939 13.5909C143.465 13.5909 143.051 13.7159 142.695 13.9659C142.342 14.2121 142.068 14.5644 141.871 15.0227C141.674 15.4773 141.575 16.0152 141.575 16.6364C141.575 17.2727 141.672 17.822 141.865 18.2841C142.058 18.7462 142.331 19.1042 142.683 19.358C143.039 19.6117 143.458 19.7386 143.939 19.7386C144.261 19.7386 144.553 19.6799 144.814 19.5625C145.079 19.4413 145.301 19.2689 145.479 19.0455C145.661 18.822 145.787 18.553 145.859 18.2386H147.513C147.452 18.803 147.268 19.3068 146.962 19.75C146.655 20.1932 146.244 20.5417 145.729 20.7955C145.217 21.0492 144.617 21.1761 143.928 21.1761ZM151.028 15.8182V21H149.33V9.36364H151.006V13.6932H151.114C151.318 13.2235 151.631 12.8504 152.051 12.5739C152.472 12.2973 153.021 12.1591 153.699 12.1591C154.297 12.1591 154.82 12.2822 155.267 12.5284C155.718 12.7746 156.066 13.142 156.312 13.6307C156.562 14.1155 156.688 14.7216 156.688 15.4489V21H154.989V15.6534C154.989 15.0133 154.824 14.517 154.494 14.1648C154.165 13.8087 153.706 13.6307 153.119 13.6307C152.718 13.6307 152.358 13.7159 152.04 13.8864C151.725 14.0568 151.477 14.3068 151.295 14.6364C151.117 14.9621 151.028 15.3561 151.028 15.8182ZM161.494 21.1932C160.941 21.1932 160.441 21.0909 159.994 20.8864C159.547 20.678 159.193 20.3769 158.932 19.983C158.674 19.589 158.545 19.1061 158.545 18.5341C158.545 18.0417 158.64 17.6364 158.83 17.3182C159.019 17 159.275 16.7481 159.597 16.5625C159.919 16.3769 160.278 16.2367 160.676 16.142C161.074 16.0473 161.479 15.9754 161.892 15.9261C162.415 15.8655 162.839 15.8163 163.165 15.7784C163.491 15.7367 163.727 15.6705 163.875 15.5795C164.023 15.4886 164.097 15.3409 164.097 15.1364V15.0966C164.097 14.6004 163.956 14.2159 163.676 13.9432C163.4 13.6705 162.987 13.5341 162.438 13.5341C161.866 13.5341 161.415 13.661 161.085 13.9148C160.759 14.1648 160.534 14.4432 160.409 14.75L158.812 14.3864C159.002 13.8561 159.278 13.428 159.642 13.1023C160.009 12.7727 160.432 12.5341 160.909 12.3864C161.386 12.2348 161.888 12.1591 162.415 12.1591C162.763 12.1591 163.133 12.2008 163.523 12.2841C163.917 12.3636 164.284 12.5114 164.625 12.7273C164.97 12.9432 165.252 13.2519 165.472 13.6534C165.691 14.0511 165.801 14.5682 165.801 15.2045V21H164.142V19.8068H164.074C163.964 20.0265 163.799 20.2424 163.58 20.4545C163.36 20.6667 163.078 20.8428 162.733 20.983C162.388 21.1231 161.975 21.1932 161.494 21.1932ZM161.864 19.8295C162.333 19.8295 162.735 19.7367 163.068 19.5511C163.405 19.3655 163.661 19.1231 163.835 18.8239C164.013 18.5208 164.102 18.197 164.102 17.8523V16.7273C164.042 16.7879 163.924 16.8447 163.75 16.8977C163.58 16.947 163.384 16.9905 163.165 17.0284C162.945 17.0625 162.731 17.0947 162.523 17.125C162.314 17.1515 162.14 17.1742 162 17.1932C161.67 17.2348 161.369 17.3049 161.097 17.4034C160.828 17.5019 160.612 17.6439 160.449 17.8295C160.29 18.0114 160.21 18.2538 160.21 18.5568C160.21 18.9773 160.366 19.2955 160.676 19.5114C160.987 19.7235 161.383 19.8295 161.864 19.8295ZM169.763 15.8182V21H168.064V12.2727H169.695V13.6932H169.803C170.003 13.2311 170.318 12.8598 170.746 12.5795C171.178 12.2992 171.721 12.1591 172.376 12.1591C172.971 12.1591 173.492 12.2841 173.939 12.5341C174.386 12.7803 174.732 13.1477 174.979 13.6364C175.225 14.125 175.348 14.7292 175.348 15.4489V21H173.649V15.6534C173.649 15.0208 173.484 14.5265 173.155 14.1705C172.825 13.8106 172.373 13.6307 171.797 13.6307C171.403 13.6307 171.053 13.7159 170.746 13.8864C170.443 14.0568 170.202 14.3068 170.024 14.6364C169.85 14.9621 169.763 15.3561 169.763 15.8182ZM181.286 24.4545C180.592 24.4545 179.996 24.3636 179.496 24.1818C179 24 178.594 23.7595 178.28 23.4602C177.965 23.161 177.731 22.8333 177.575 22.4773L179.036 21.875C179.138 22.0417 179.274 22.2178 179.445 22.4034C179.619 22.5928 179.854 22.7538 180.149 22.8864C180.448 23.0189 180.833 23.0852 181.303 23.0852C181.946 23.0852 182.479 22.928 182.899 22.6136C183.32 22.303 183.53 21.8068 183.53 21.125V19.4091H183.422C183.32 19.5947 183.172 19.8011 182.979 20.0284C182.789 20.2557 182.528 20.4527 182.195 20.6193C181.861 20.786 181.428 20.8693 180.893 20.8693C180.204 20.8693 179.583 20.7083 179.03 20.3864C178.481 20.0606 178.045 19.5814 177.723 18.9489C177.405 18.3125 177.246 17.5303 177.246 16.6023C177.246 15.6742 177.403 14.8788 177.717 14.2159C178.036 13.553 178.471 13.0455 179.024 12.6932C179.577 12.3371 180.204 12.1591 180.905 12.1591C181.446 12.1591 181.884 12.25 182.217 12.4318C182.551 12.6098 182.81 12.8182 182.996 13.0568C183.185 13.2955 183.331 13.5057 183.433 13.6875H183.558V12.2727H185.223V21.1932C185.223 21.9432 185.049 22.5587 184.7 23.0398C184.352 23.5208 183.88 23.8769 183.286 24.108C182.695 24.339 182.028 24.4545 181.286 24.4545ZM181.268 19.4602C181.757 19.4602 182.17 19.3466 182.507 19.1193C182.848 18.8883 183.106 18.5587 183.28 18.1307C183.458 17.6989 183.547 17.1818 183.547 16.5795C183.547 15.9924 183.46 15.4754 183.286 15.0284C183.111 14.5814 182.856 14.233 182.518 13.983C182.181 13.7292 181.765 13.6023 181.268 13.6023C180.757 13.6023 180.331 13.7348 179.99 14C179.649 14.2614 179.392 14.6174 179.217 15.0682C179.047 15.5189 178.962 16.0227 178.962 16.5795C178.962 17.1515 179.049 17.6534 179.223 18.0852C179.397 18.517 179.655 18.8542 179.996 19.0966C180.34 19.339 180.765 19.4602 181.268 19.4602ZM191.263 21.1761C190.403 21.1761 189.662 20.9924 189.041 20.625C188.424 20.2538 187.946 19.733 187.609 19.0625C187.276 18.3883 187.109 17.5985 187.109 16.6932C187.109 15.7992 187.276 15.0114 187.609 14.3295C187.946 13.6477 188.416 13.1155 189.018 12.733C189.625 12.3504 190.333 12.1591 191.143 12.1591C191.636 12.1591 192.113 12.2405 192.575 12.4034C193.037 12.5663 193.452 12.822 193.82 13.1705C194.187 13.5189 194.477 13.9716 194.689 14.5284C194.901 15.0814 195.007 15.7538 195.007 16.5455V17.1477H188.07V15.875H193.342C193.342 15.428 193.251 15.0322 193.07 14.6875C192.888 14.339 192.632 14.0644 192.303 13.8636C191.977 13.6629 191.594 13.5625 191.155 13.5625C190.678 13.5625 190.261 13.6799 189.905 13.9148C189.553 14.1458 189.28 14.4489 189.087 14.8239C188.897 15.1951 188.803 15.5985 188.803 16.0341V17.0284C188.803 17.6117 188.905 18.108 189.109 18.517C189.318 18.9261 189.607 19.2386 189.979 19.4545C190.35 19.6667 190.784 19.7727 191.28 19.7727C191.602 19.7727 191.895 19.7273 192.161 19.6364C192.426 19.5417 192.655 19.4015 192.848 19.2159C193.041 19.0303 193.189 18.8011 193.291 18.5284L194.899 18.8182C194.77 19.2917 194.539 19.7064 194.206 20.0625C193.876 20.4148 193.462 20.6894 192.962 20.8864C192.465 21.0795 191.899 21.1761 191.263 21.1761Z" fill="white"/>
</g>
<defs>
<clipPath id="clip0_671_688">
<rect width="196" height="30" fill="white"/>
</clipPath>
</defs>
</svg>
